<mxfile host="app.diagrams.net" modified="2021-12-07T06:21:14.460Z" agent="5.0 (X11; Linux x86_64) AppleWebKit/537.36 (KHTML, like Gecko) Chrome/96.0.4664.45 Safari/537.36" etag="ScDS8YA5xg8UaBN2uo2_" version="15.9.1" type="github">
  <diagram id="kNE_ISpDp5c0xLtPtjDu" name="Page-1">
    <mxGraphModel dx="1370" dy="773" grid="1" gridSize="10" guides="1" tooltips="1" connect="1" arrows="1" fold="1" page="1" pageScale="1" pageWidth="827" pageHeight="1169" math="0" shadow="0">
      <root>
        <mxCell id="0" />
        <mxCell id="1" parent="0" />
        <mxCell id="cTlc8ulD830diAcSWV0h-18" value="" style="edgeStyle=orthogonalEdgeStyle;rounded=0;orthogonalLoop=1;jettySize=auto;html=1;entryX=0;entryY=0.5;entryDx=0;entryDy=0;startArrow=none;" edge="1" parent="1" source="cTlc8ulD830diAcSWV0h-49" target="cTlc8ulD830diAcSWV0h-6">
          <mxGeometry relative="1" as="geometry">
            <mxPoint x="710" y="360" as="targetPoint" />
          </mxGeometry>
        </mxCell>
        <mxCell id="cTlc8ulD830diAcSWV0h-1" value="&lt;b&gt;&lt;font style=&quot;font-size: 13px&quot;&gt;Jenkins&lt;/font&gt;&lt;/b&gt;" style="rounded=1;whiteSpace=wrap;html=1;fillColor=#dae8fc;strokeColor=#6c8ebf;" vertex="1" parent="1">
          <mxGeometry x="510" y="330" width="120" height="60" as="geometry" />
        </mxCell>
        <mxCell id="cTlc8ulD830diAcSWV0h-12" value="" style="edgeStyle=orthogonalEdgeStyle;rounded=0;orthogonalLoop=1;jettySize=auto;html=1;entryX=0;entryY=0.5;entryDx=0;entryDy=0;startArrow=none;" edge="1" parent="1" source="cTlc8ulD830diAcSWV0h-22" target="cTlc8ulD830diAcSWV0h-3">
          <mxGeometry relative="1" as="geometry">
            <mxPoint x="230" y="200" as="targetPoint" />
          </mxGeometry>
        </mxCell>
        <mxCell id="cTlc8ulD830diAcSWV0h-2" value="&lt;font style=&quot;font-size: 13px&quot;&gt;&lt;b&gt;VMware &lt;/b&gt;instance with ubuntu 18.04.&lt;/font&gt;" style="rounded=1;whiteSpace=wrap;html=1;fillColor=#dae8fc;strokeColor=#6c8ebf;" vertex="1" parent="1">
          <mxGeometry x="10" y="170" width="120" height="60" as="geometry" />
        </mxCell>
        <mxCell id="cTlc8ulD830diAcSWV0h-13" value="" style="edgeStyle=orthogonalEdgeStyle;rounded=0;orthogonalLoop=1;jettySize=auto;html=1;startArrow=none;" edge="1" parent="1" source="cTlc8ulD830diAcSWV0h-23" target="cTlc8ulD830diAcSWV0h-10">
          <mxGeometry relative="1" as="geometry" />
        </mxCell>
        <mxCell id="cTlc8ulD830diAcSWV0h-3" value="&lt;b&gt;&lt;font style=&quot;font-size: 13px&quot;&gt;Terraform file&lt;/font&gt;&lt;/b&gt;" style="rounded=1;whiteSpace=wrap;html=1;fillColor=#dae8fc;strokeColor=#6c8ebf;" vertex="1" parent="1">
          <mxGeometry x="260" y="170" width="120" height="60" as="geometry" />
        </mxCell>
        <mxCell id="cTlc8ulD830diAcSWV0h-5" value="&lt;b&gt;&lt;font style=&quot;font-size: 13px&quot;&gt;Git and GitHub&amp;nbsp;&lt;/font&gt;&lt;/b&gt;" style="rounded=1;whiteSpace=wrap;html=1;fillColor=#dae8fc;strokeColor=#6c8ebf;" vertex="1" parent="1">
          <mxGeometry x="250" y="330" width="120" height="60" as="geometry" />
        </mxCell>
        <mxCell id="cTlc8ulD830diAcSWV0h-19" value="" style="edgeStyle=orthogonalEdgeStyle;rounded=0;orthogonalLoop=1;jettySize=auto;html=1;startArrow=none;" edge="1" parent="1" source="cTlc8ulD830diAcSWV0h-43" target="cTlc8ulD830diAcSWV0h-7">
          <mxGeometry relative="1" as="geometry" />
        </mxCell>
        <mxCell id="cTlc8ulD830diAcSWV0h-6" value="&lt;font style=&quot;font-size: 13px&quot;&gt;&lt;b&gt;Job 1: -&lt;/b&gt;&amp;nbsp;For fetching code from GitHub Repository.&lt;/font&gt;" style="shape=process;whiteSpace=wrap;html=1;backgroundOutline=1;fillColor=#e1d5e7;strokeColor=#9673a6;" vertex="1" parent="1">
          <mxGeometry x="770" y="320" width="240" height="80" as="geometry" />
        </mxCell>
        <mxCell id="cTlc8ulD830diAcSWV0h-20" value="" style="edgeStyle=orthogonalEdgeStyle;rounded=0;orthogonalLoop=1;jettySize=auto;html=1;startArrow=none;" edge="1" parent="1" source="cTlc8ulD830diAcSWV0h-45" target="cTlc8ulD830diAcSWV0h-8">
          <mxGeometry relative="1" as="geometry" />
        </mxCell>
        <mxCell id="cTlc8ulD830diAcSWV0h-7" value="&lt;font style=&quot;font-size: 13px&quot;&gt;&lt;b&gt;Job 2: -&lt;/b&gt;&amp;nbsp;Build, Create, and Deploy of web app on &lt;b&gt;Docker Container &lt;/b&gt;and &lt;b&gt;Docker Hub.&lt;/b&gt;&lt;/font&gt;" style="shape=process;whiteSpace=wrap;html=1;backgroundOutline=1;fillColor=#e1d5e7;strokeColor=#9673a6;" vertex="1" parent="1">
          <mxGeometry x="770" y="505" width="240" height="80" as="geometry" />
        </mxCell>
        <mxCell id="cTlc8ulD830diAcSWV0h-21" value="" style="edgeStyle=orthogonalEdgeStyle;rounded=0;orthogonalLoop=1;jettySize=auto;html=1;startArrow=none;" edge="1" parent="1" source="cTlc8ulD830diAcSWV0h-47" target="cTlc8ulD830diAcSWV0h-9">
          <mxGeometry relative="1" as="geometry" />
        </mxCell>
        <mxCell id="cTlc8ulD830diAcSWV0h-8" value="&lt;font style=&quot;font-size: 14px&quot;&gt;&lt;b&gt;Job 3: -&lt;/b&gt;&amp;nbsp;Final deployment on&amp;nbsp;&lt;b&gt;&amp;nbsp;Kubernetes.&lt;/b&gt;&lt;/font&gt;" style="shape=process;whiteSpace=wrap;html=1;backgroundOutline=1;fillColor=#e1d5e7;strokeColor=#9673a6;" vertex="1" parent="1">
          <mxGeometry x="770" y="685" width="240" height="80" as="geometry" />
        </mxCell>
        <mxCell id="cTlc8ulD830diAcSWV0h-9" value="&lt;font style=&quot;font-size: 13px&quot;&gt;Web application will be accessible on&amp;nbsp;&lt;br&gt;&lt;b&gt;Deployment server ip:port number&lt;/b&gt;&lt;/font&gt;" style="ellipse;shape=cloud;whiteSpace=wrap;html=1;fillColor=#fff2cc;strokeColor=#d6b656;" vertex="1" parent="1">
          <mxGeometry x="735" y="830" width="310" height="100" as="geometry" />
        </mxCell>
        <mxCell id="cTlc8ulD830diAcSWV0h-14" value="" style="edgeStyle=orthogonalEdgeStyle;rounded=0;orthogonalLoop=1;jettySize=auto;html=1;startArrow=none;" edge="1" parent="1" source="cTlc8ulD830diAcSWV0h-27" target="cTlc8ulD830diAcSWV0h-1">
          <mxGeometry relative="1" as="geometry" />
        </mxCell>
        <mxCell id="cTlc8ulD830diAcSWV0h-10" value="&lt;font style=&quot;font-size: 13px&quot;&gt;&lt;b&gt;2 AWS EC2 &lt;br&gt;Instance &lt;/b&gt;with&amp;nbsp;&lt;br&gt;ubuntu 18.04&lt;/font&gt;" style="ellipse;shape=cloud;whiteSpace=wrap;html=1;fillColor=#fff2cc;strokeColor=#d6b656;" vertex="1" parent="1">
          <mxGeometry x="490" y="145" width="160" height="110" as="geometry" />
        </mxCell>
        <mxCell id="cTlc8ulD830diAcSWV0h-25" value="" style="endArrow=classic;startArrow=none;html=1;rounded=0;entryX=0;entryY=0.5;entryDx=0;entryDy=0;exitX=1;exitY=0.5;exitDx=0;exitDy=0;" edge="1" parent="1" source="cTlc8ulD830diAcSWV0h-26" target="cTlc8ulD830diAcSWV0h-1">
          <mxGeometry width="50" height="50" relative="1" as="geometry">
            <mxPoint x="390" y="460" as="sourcePoint" />
            <mxPoint x="440" y="410" as="targetPoint" />
          </mxGeometry>
        </mxCell>
        <mxCell id="cTlc8ulD830diAcSWV0h-27" value="&lt;b&gt;&lt;font style=&quot;font-size: 13px&quot;&gt;Master Instance Will Have&lt;/font&gt;&lt;/b&gt;" style="text;html=1;align=center;verticalAlign=middle;resizable=0;points=[];autosize=1;strokeColor=none;fillColor=none;" vertex="1" parent="1">
          <mxGeometry x="480" y="280" width="180" height="20" as="geometry" />
        </mxCell>
        <mxCell id="cTlc8ulD830diAcSWV0h-28" value="" style="edgeStyle=orthogonalEdgeStyle;rounded=0;orthogonalLoop=1;jettySize=auto;html=1;endArrow=none;" edge="1" parent="1" source="cTlc8ulD830diAcSWV0h-10" target="cTlc8ulD830diAcSWV0h-27">
          <mxGeometry relative="1" as="geometry">
            <mxPoint x="560" y="255" as="sourcePoint" />
            <mxPoint x="570" y="330" as="targetPoint" />
          </mxGeometry>
        </mxCell>
        <mxCell id="cTlc8ulD830diAcSWV0h-23" value="&lt;b&gt;&lt;font style=&quot;font-size: 13px&quot;&gt;CREATE&lt;/font&gt;&lt;/b&gt;" style="text;html=1;align=center;verticalAlign=middle;resizable=0;points=[];autosize=1;strokeColor=none;fillColor=none;" vertex="1" parent="1">
          <mxGeometry x="395" y="190" width="70" height="20" as="geometry" />
        </mxCell>
        <mxCell id="cTlc8ulD830diAcSWV0h-29" value="" style="edgeStyle=orthogonalEdgeStyle;rounded=0;orthogonalLoop=1;jettySize=auto;html=1;endArrow=none;" edge="1" parent="1" source="cTlc8ulD830diAcSWV0h-3" target="cTlc8ulD830diAcSWV0h-23">
          <mxGeometry relative="1" as="geometry">
            <mxPoint x="380" y="200" as="sourcePoint" />
            <mxPoint x="480" y="200" as="targetPoint" />
          </mxGeometry>
        </mxCell>
        <mxCell id="cTlc8ulD830diAcSWV0h-22" value="&lt;b&gt;&lt;font style=&quot;font-size: 13px&quot;&gt;RUN&lt;/font&gt;&lt;/b&gt;" style="text;html=1;align=center;verticalAlign=middle;resizable=0;points=[];autosize=1;strokeColor=none;fillColor=none;" vertex="1" parent="1">
          <mxGeometry x="170" y="190" width="40" height="20" as="geometry" />
        </mxCell>
        <mxCell id="cTlc8ulD830diAcSWV0h-30" value="" style="edgeStyle=orthogonalEdgeStyle;rounded=0;orthogonalLoop=1;jettySize=auto;html=1;entryX=0;entryY=0.5;entryDx=0;entryDy=0;endArrow=none;" edge="1" parent="1" source="cTlc8ulD830diAcSWV0h-2" target="cTlc8ulD830diAcSWV0h-22">
          <mxGeometry relative="1" as="geometry">
            <mxPoint x="130" y="200" as="sourcePoint" />
            <mxPoint x="260" y="200" as="targetPoint" />
          </mxGeometry>
        </mxCell>
        <mxCell id="cTlc8ulD830diAcSWV0h-26" value="&lt;font style=&quot;font-size: 13px&quot;&gt;&lt;b&gt;Jenkins &lt;/b&gt;fetch data&lt;/font&gt;" style="text;html=1;align=center;verticalAlign=middle;resizable=0;points=[];autosize=1;strokeColor=none;fillColor=none;" vertex="1" parent="1">
          <mxGeometry x="380" y="350" width="120" height="20" as="geometry" />
        </mxCell>
        <mxCell id="cTlc8ulD830diAcSWV0h-31" value="" style="endArrow=none;startArrow=classic;html=1;rounded=0;entryX=0;entryY=0.5;entryDx=0;entryDy=0;exitX=1;exitY=0.5;exitDx=0;exitDy=0;" edge="1" parent="1" source="cTlc8ulD830diAcSWV0h-5" target="cTlc8ulD830diAcSWV0h-26">
          <mxGeometry width="50" height="50" relative="1" as="geometry">
            <mxPoint x="380" y="360" as="sourcePoint" />
            <mxPoint x="510" y="360" as="targetPoint" />
          </mxGeometry>
        </mxCell>
        <mxCell id="cTlc8ulD830diAcSWV0h-32" value="" style="endArrow=none;html=1;rounded=0;entryX=0.5;entryY=1;entryDx=0;entryDy=0;startArrow=none;" edge="1" parent="1" source="cTlc8ulD830diAcSWV0h-35" target="cTlc8ulD830diAcSWV0h-1">
          <mxGeometry width="50" height="50" relative="1" as="geometry">
            <mxPoint x="570" y="720" as="sourcePoint" />
            <mxPoint x="440" y="410" as="targetPoint" />
          </mxGeometry>
        </mxCell>
        <mxCell id="cTlc8ulD830diAcSWV0h-33" value="" style="endArrow=classic;html=1;rounded=0;entryX=-0.008;entryY=0.613;entryDx=0;entryDy=0;entryPerimeter=0;startArrow=none;" edge="1" parent="1" source="cTlc8ulD830diAcSWV0h-38" target="cTlc8ulD830diAcSWV0h-7">
          <mxGeometry width="50" height="50" relative="1" as="geometry">
            <mxPoint x="570" y="554" as="sourcePoint" />
            <mxPoint x="440" y="410" as="targetPoint" />
          </mxGeometry>
        </mxCell>
        <mxCell id="cTlc8ulD830diAcSWV0h-34" value="" style="endArrow=classic;html=1;rounded=0;entryX=0;entryY=0.5;entryDx=0;entryDy=0;startArrow=none;" edge="1" parent="1" source="cTlc8ulD830diAcSWV0h-40" target="cTlc8ulD830diAcSWV0h-8">
          <mxGeometry width="50" height="50" relative="1" as="geometry">
            <mxPoint x="570" y="720" as="sourcePoint" />
            <mxPoint x="440" y="410" as="targetPoint" />
          </mxGeometry>
        </mxCell>
        <mxCell id="cTlc8ulD830diAcSWV0h-35" value="&lt;font style=&quot;font-size: 13px&quot;&gt;&lt;b&gt;Jobs &lt;/b&gt;in jenkins&lt;/font&gt;" style="text;html=1;align=center;verticalAlign=middle;resizable=0;points=[];autosize=1;strokeColor=none;fillColor=none;" vertex="1" parent="1">
          <mxGeometry x="520" y="485" width="100" height="20" as="geometry" />
        </mxCell>
        <mxCell id="cTlc8ulD830diAcSWV0h-36" value="" style="endArrow=none;html=1;rounded=0;entryX=0.5;entryY=1;entryDx=0;entryDy=0;" edge="1" parent="1" target="cTlc8ulD830diAcSWV0h-35">
          <mxGeometry width="50" height="50" relative="1" as="geometry">
            <mxPoint x="570" y="720" as="sourcePoint" />
            <mxPoint x="570" y="390" as="targetPoint" />
          </mxGeometry>
        </mxCell>
        <mxCell id="cTlc8ulD830diAcSWV0h-38" value="&lt;font style=&quot;font-size: 13px&quot;&gt;First&amp;nbsp;&lt;b&gt;Ansible &lt;/b&gt;playbook for&amp;nbsp;&lt;br&gt;&lt;b&gt;Docker &lt;/b&gt;task.&lt;/font&gt;" style="text;html=1;align=center;verticalAlign=middle;resizable=0;points=[];autosize=1;strokeColor=none;fillColor=none;" vertex="1" parent="1">
          <mxGeometry x="565" y="540" width="170" height="30" as="geometry" />
        </mxCell>
        <mxCell id="cTlc8ulD830diAcSWV0h-40" value="&lt;font style=&quot;font-size: 13px&quot;&gt;Second &lt;b&gt;Ansible &lt;/b&gt;playbok for&amp;nbsp;&lt;br&gt;&lt;b&gt;Kubernetes&lt;/b&gt;&amp;nbsp;task.&lt;/font&gt;" style="text;html=1;align=center;verticalAlign=middle;resizable=0;points=[];autosize=1;strokeColor=none;fillColor=none;" vertex="1" parent="1">
          <mxGeometry x="570" y="710" width="180" height="30" as="geometry" />
        </mxCell>
        <mxCell id="cTlc8ulD830diAcSWV0h-41" value="" style="endArrow=none;html=1;rounded=0;entryX=0;entryY=0.5;entryDx=0;entryDy=0;" edge="1" parent="1" target="cTlc8ulD830diAcSWV0h-40">
          <mxGeometry width="50" height="50" relative="1" as="geometry">
            <mxPoint x="570" y="720" as="sourcePoint" />
            <mxPoint x="760" y="720" as="targetPoint" />
          </mxGeometry>
        </mxCell>
        <mxCell id="cTlc8ulD830diAcSWV0h-43" value="&lt;b&gt;&lt;font style=&quot;font-size: 13px&quot;&gt;If Data fetched&amp;nbsp;&lt;/font&gt;&lt;/b&gt;" style="text;html=1;align=center;verticalAlign=middle;resizable=0;points=[];autosize=1;strokeColor=none;fillColor=none;" vertex="1" parent="1">
          <mxGeometry x="835" y="440" width="110" height="20" as="geometry" />
        </mxCell>
        <mxCell id="cTlc8ulD830diAcSWV0h-44" value="" style="edgeStyle=orthogonalEdgeStyle;rounded=0;orthogonalLoop=1;jettySize=auto;html=1;endArrow=none;" edge="1" parent="1" source="cTlc8ulD830diAcSWV0h-6" target="cTlc8ulD830diAcSWV0h-43">
          <mxGeometry relative="1" as="geometry">
            <mxPoint x="880" y="400" as="sourcePoint" />
            <mxPoint x="880" y="505" as="targetPoint" />
          </mxGeometry>
        </mxCell>
        <mxCell id="cTlc8ulD830diAcSWV0h-45" value="&lt;b&gt;&lt;font style=&quot;font-size: 13px&quot;&gt;If image is on Docker Hub&lt;/font&gt;&lt;/b&gt;" style="text;html=1;align=center;verticalAlign=middle;resizable=0;points=[];autosize=1;strokeColor=none;fillColor=none;" vertex="1" parent="1">
          <mxGeometry x="800" y="620" width="180" height="20" as="geometry" />
        </mxCell>
        <mxCell id="cTlc8ulD830diAcSWV0h-46" value="" style="edgeStyle=orthogonalEdgeStyle;rounded=0;orthogonalLoop=1;jettySize=auto;html=1;endArrow=none;" edge="1" parent="1" source="cTlc8ulD830diAcSWV0h-7" target="cTlc8ulD830diAcSWV0h-45">
          <mxGeometry relative="1" as="geometry">
            <mxPoint x="880" y="585" as="sourcePoint" />
            <mxPoint x="880" y="680" as="targetPoint" />
          </mxGeometry>
        </mxCell>
        <mxCell id="cTlc8ulD830diAcSWV0h-47" value="&lt;b&gt;&lt;font style=&quot;font-size: 13px&quot;&gt;Finally&lt;/font&gt;&lt;/b&gt;" style="text;html=1;align=center;verticalAlign=middle;resizable=0;points=[];autosize=1;strokeColor=none;fillColor=none;" vertex="1" parent="1">
          <mxGeometry x="860" y="790" width="60" height="20" as="geometry" />
        </mxCell>
        <mxCell id="cTlc8ulD830diAcSWV0h-48" value="" style="edgeStyle=orthogonalEdgeStyle;rounded=0;orthogonalLoop=1;jettySize=auto;html=1;endArrow=none;" edge="1" parent="1" target="cTlc8ulD830diAcSWV0h-47">
          <mxGeometry relative="1" as="geometry">
            <mxPoint x="890" y="770" as="sourcePoint" />
            <mxPoint x="880" y="820" as="targetPoint" />
          </mxGeometry>
        </mxCell>
        <mxCell id="cTlc8ulD830diAcSWV0h-49" value="&lt;b style=&quot;font-size: 13px;&quot;&gt;Jobs &lt;/b&gt;in jenkins" style="text;html=1;align=center;verticalAlign=middle;resizable=0;points=[];autosize=1;strokeColor=none;fillColor=none;fontSize=13;" vertex="1" parent="1">
          <mxGeometry x="650" y="350" width="100" height="20" as="geometry" />
        </mxCell>
        <mxCell id="cTlc8ulD830diAcSWV0h-50" value="" style="edgeStyle=orthogonalEdgeStyle;rounded=0;orthogonalLoop=1;jettySize=auto;html=1;entryX=0;entryY=0.5;entryDx=0;entryDy=0;endArrow=none;" edge="1" parent="1" source="cTlc8ulD830diAcSWV0h-1" target="cTlc8ulD830diAcSWV0h-49">
          <mxGeometry relative="1" as="geometry">
            <mxPoint x="630" y="360" as="sourcePoint" />
            <mxPoint x="760" y="360" as="targetPoint" />
          </mxGeometry>
        </mxCell>
      </root>
    </mxGraphModel>
  </diagram>
</mxfile>
